<svg version="1.1" xmlns="http://www.w3.org/2000/svg" xmlns:xlink="http://www.w3.org/1999/xlink" width="41.70558" height="42.47795" viewBox="0,0,41.70558,42.47795"><g transform="translate(-219.14721,-158.76103)"><g data-paper-data="{&quot;isPaintingLayer&quot;:true}" fill-rule="nonzero" stroke-linejoin="miter" stroke-miterlimit="10" stroke-dasharray="" stroke-dashoffset="0" style="mix-blend-mode: normal"><g stroke="none" stroke-linecap="butt"><path d="M258.75262,181.81735c0,9.73796 -8.39595,17.63451 -18.75464,17.63451c-10.35869,0 -18.75397,-7.8932 -18.75397,-17.63451c0,-9.73796 8.39461,-14.26139 18.75397,-14.26139c10.35802,-0.00067 18.75464,4.52409 18.75464,14.26139z" fill="#ec1c2c" stroke-width="1"/><g><path d="M260.85279,181.62899c0,10.82994 -9.33575,19.60999 -20.85346,19.60999c-11.51569,0 -20.85212,-8.78005 -20.85212,-19.60999c0,-9.54424 7.2537,-13.84108 16.85826,-14.7286c0,0 3.03527,-0.3888 6.12418,-0.12669c10.51354,0.48934 18.72313,4.70374 18.72313,14.8553zM257.67138,181.91656c0,-8.44757 -6.70804,-12.72565 -15.38352,-13.35308c0,0 -5.50145,0.07709 -5.66835,0.09653c-8.14122,0.89892 -14.28753,5.16829 -14.28753,13.25521c0,9.1742 7.90862,16.61426 17.66803,16.61426c9.75874,0 17.66736,-7.43871 17.67138,-16.61292z" fill="#bb1616" stroke-width="1"/><path d="M239.99998,198.563c-9.75941,0 -17.70139,-7.47666 -17.70139,-16.65086c0,-8.08693 6.17225,-12.38589 14.31347,-13.28481c0.16692,-0.01944 5.68083,-0.09697 5.68083,-0.09697c8.67548,0.62744 15.41185,4.93557 15.41185,13.38314c-0.00403,9.1742 -7.94602,16.64951 -17.70475,16.64951z" data-paper-data="{&quot;noHover&quot;:false,&quot;origItem&quot;:[&quot;Path&quot;,{&quot;applyMatrix&quot;:true,&quot;segments&quot;:[[[266.47,183.55],[-0.006,13.686],[0,-12.602]],[[243.521,163.63],[12.942,0.936],[0,0]],[[235.065,163.774],[0.249,-0.029],[-12.145,1.341]],[[213.751,183.548],[0,-12.064],[0,13.686]],[[240.108,208.333],[-14.559,0],[14.558,0]]],&quot;closed&quot;:true,&quot;fillColor&quot;:[0,0,0,1]}]}" fill="#ff1f1f" stroke-width="0.5"/><path d="M246.00084,172.87709c-2.39176,0.12133 -4.68296,0.18166 -7.07941,0.45047c-1.60009,0.17965 -3.14186,0.19372 -4.32701,-1.01489c-0.25741,-0.26478 0.0791,-0.72128 0.40086,-0.51817c0.79234,0.49672 1.5907,0.69781 2.39376,0.7367c0.05229,0.0429 2.86502,-0.32847 4.14938,-0.73603c1.54982,-0.42231 3.10097,-0.77089 4.64475,-0.26076c0.73804,0.24401 0.59525,1.30179 -0.18233,1.34268z" fill="#231f20" stroke-width="1"/></g><path d="M227.56326,181.72284c0,2.29992 1.24012,4.16412 -0.05631,4.16412c-1.29643,0 -2.34618,-1.8642 -2.34618,-4.16412c0,-2.29925 1.04975,-4.16345 2.34618,-4.16345c1.29643,0 0.05631,1.86487 0.05631,4.16345z" fill="#ff1f1f" stroke-width="1"/></g><g stroke="none" stroke-width="1" stroke-linecap="butt"><path d="M235.31302,161.89767c0.68442,-0.4089 1.36682,-0.81915 2.05056,-1.22872c0.49203,0.75614 0.98673,1.49418 1.38357,2.33411c1.44926,3.05941 1.13019,6.2911 1.08862,9.5268c-0.25138,0.05966 -0.65492,0.10256 -0.90361,0.1468c0.17295,-4.12122 -0.80775,-7.89924 -3.61914,-10.77899z" fill="#99661d"/><path d="M241.46736,171.11612c0,0 -0.15418,1.25755 -0.16825,1.49485c0,0 -2.52783,0.75345 -3.51926,0.37673l-0.03083,-1.07857c0.02011,-2.15513 -0.65023,-4.4698 -1.04707,-5.19443c-0.18971,-0.34589 -0.95389,-2.32339 -3.28465,-4.39539c-0.39952,-0.35327 -0.26478,-1.01556 0.16223,-1.2723c1.2113,-0.72665 2.41924,-1.45329 3.6292,-2.17993c0.3888,-0.2326 0.84797,-0.05899 1.11141,0.29159c3.70562,4.93232 3.26051,11.44732 3.14723,11.95744zM239.76739,171.59474c0.07508,-2.97763 0.32847,-5.74477 -1.02025,-8.59168c-0.39684,-0.83993 -0.89155,-1.57797 -1.38357,-2.33411c-0.68374,0.40957 -1.36614,0.81982 -2.05056,1.22872c2.65587,2.72022 3.74047,6.01224 3.70695,9.84253v0.77223l0.74341,-0.09452z" fill="#231f20"/></g><path d="M229.47745,166.39959c0.91516,-1.35769 3.49142,-1.22183 5.75423,0.30345c1.12871,0.76082 1.51603,2.04868 1.95844,2.99117c0.44453,0.947 0.94036,1.54843 0.48168,2.22889c-0.66114,0.98083 -1.15196,1.06386 -2.80248,0.52499c-0.63417,-0.20705 -2.32365,-0.40506 -2.95175,-0.82844c-2.2628,-1.52528 -3.35528,-3.86237 -2.44012,-5.22006z" fill="#e66220" stroke="#000000" stroke-width="0.5" stroke-linecap="butt"/><path d="M247.27311,171.75987c-0.64903,0.39054 -2.34646,0.50144 -2.99043,0.67563c-1.67603,0.45332 -2.16194,0.34517 -2.77179,-0.66834c-0.42309,-0.70314 0.103,-1.27829 0.59562,-2.20119c0.49027,-0.91851 0.94327,-2.18476 2.1096,-2.88656c2.33821,-1.40695 4.91805,-1.41021 5.76221,-0.00729c0.84417,1.40293 -0.36699,3.68079 -2.70521,5.08774z" data-paper-data="{&quot;index&quot;:null}" fill="#e66220" stroke="#000000" stroke-width="0.5" stroke-linecap="butt"/><path d="M232.0584,167.61795l4.02668,3.42268" fill="none" stroke="#000000" stroke-width="0.5" stroke-linecap="round"/><path d="M242.93044,171.04063l3.42268,-3.42268" fill="none" stroke="#000000" stroke-width="0.5" stroke-linecap="round"/></g></g></svg>