<svg version="1.1" xmlns="http://www.w3.org/2000/svg" xmlns:xlink="http://www.w3.org/1999/xlink" width="522.5" height="413.5" viewBox="0,0,522.5,413.5"><defs><linearGradient x1="248" y1="-18" x2="248" y2="392" gradientUnits="userSpaceOnUse" id="color-1"><stop offset="0" stop-color="#00b6ff"/><stop offset="1" stop-color="#00fff2"/></linearGradient></defs><g transform="translate(13.25,19.75)"><g data-paper-data="{&quot;isPaintingLayer&quot;:true}" fill-rule="nonzero" stroke-linejoin="miter" stroke-miterlimit="10" stroke-dasharray="" stroke-dashoffset="0" style="mix-blend-mode: normal"><path d="M-11.5,392v-410h519v410z" fill="url(#color-1)" stroke="#41b700" stroke-width="3.5" stroke-linecap="butt"/><path d="M63.5,313v-136h43v136z" fill="#981d00" stroke="#550000" stroke-width="4" stroke-linecap="butt"/><path d="M101.5,167.5c0,19.60611 -15.56277,35.5 -34.76042,35.5c-19.19765,0 -34.76042,-15.89389 -34.76042,-35.5c0,-19.60611 15.56277,-35.5 34.76042,-35.5c19.19765,0 34.76042,15.89389 34.76042,35.5z" fill="#38ff00" stroke="#055000" stroke-width="4" stroke-linecap="butt"/><path d="M111.5,133c0,14.91169 -12.08831,27 -27,27c-14.91169,0 -27,-12.08831 -27,-27c0,-14.91169 12.08831,-27 27,-27c14.91169,0 27,12.08831 27,27z" fill="#38ff00" stroke="#145d00" stroke-width="4" stroke-linecap="butt"/><path d="M152.5,169c0,19.32997 -15.67003,35 -35,35c-19.32997,0 -35,-15.67003 -35,-35c0,-19.32997 15.67003,-35 35,-35c19.32997,0 35,15.67003 35,35z" fill="#38ff00" stroke="#145d00" stroke-width="4" stroke-linecap="butt"/><path d="M46.5,149c0,-8.28427 6.71573,-15 15,-15c6.70161,0 12.37675,4.39484 14.30056,10.45965c1.18334,-0.30015 2.42276,-0.45965 3.69944,-0.45965c2.1341,0 4.1641,0.44567 6.00203,1.24902c-0.00135,-0.08284 -0.00203,-0.16585 -0.00203,-0.24902c0,-8.28427 6.71573,-15 15,-15c8.28427,0 15,6.71573 15,15c0,8.28427 -6.71573,15 -15,15c-2.1341,0 -4.1641,-0.44567 -6.00203,-1.24902c0.00135,0.08284 0.00203,0.16585 0.00203,0.24902c0,2.18102 -0.46548,4.25333 -1.30253,6.12299c4.37439,2.6205 7.30253,7.4068 7.30253,12.87701c0,8.28427 -6.71573,15 -15,15c-8.28427,0 -15,-6.71573 -15,-15c0,-2.18102 0.46548,-4.25333 1.30253,-6.12299c-3.10877,-1.86233 -5.4871,-4.81851 -6.60309,-8.33666c-1.18334,0.30015 -2.42276,0.45965 -3.69944,0.45965c-8.28427,0 -15,-6.71573 -15,-15z" fill="#38ff00" stroke="none" stroke-width="0.5" stroke-linecap="butt"/><path d="M69.5,156.5c0,5.79899 -4.25329,10.5 -9.5,10.5c-5.24671,0 -9.5,-4.70101 -9.5,-10.5c0,-5.79899 4.25329,-10.5 9.5,-10.5c5.24671,0 9.5,4.70101 9.5,10.5z" fill="#ff0000" stroke="#650000" stroke-width="4" stroke-linecap="butt"/><path d="M102.5,140.5c0,5.79899 -4.25329,10.5 -9.5,10.5c-5.2467,0 -9.5,-4.70101 -9.5,-10.5c0,-5.79899 4.2533,-10.5 9.5,-10.5c5.24671,0 9.5,4.70101 9.5,10.5z" fill="#ff0000" stroke="#5d0000" stroke-width="4" stroke-linecap="butt"/><path d="M128.5,176.5c0,5.79899 -4.25329,10.5 -9.5,10.5c-5.24671,0 -9.5,-4.70101 -9.5,-10.5c0,-5.79899 4.25329,-10.5 9.5,-10.5c5.24671,0 9.5,4.70101 9.5,10.5z" fill="#ff0000" stroke="#5d0000" stroke-width="4" stroke-linecap="butt"/><path d="M59.5,138v14" fill="none" stroke="#000000" stroke-width="4" stroke-linecap="round"/><path d="M92.5,124v14" fill="none" stroke="#000000" stroke-width="4" stroke-linecap="round"/><path d="M118.5,157v14" fill="none" stroke="#000000" stroke-width="4" stroke-linecap="round"/><path d="M353.5,315v-136h43v136z" fill="#981d00" stroke="#550000" stroke-width="4" stroke-linecap="butt"/><path d="M390.5,169.5c0,19.60611 -15.56277,35.5 -34.76042,35.5c-19.19765,0 -34.76042,-15.89389 -34.76042,-35.5c0,-19.60611 15.56277,-35.5 34.76042,-35.5c19.19765,0 34.76042,15.89389 34.76042,35.5z" fill="#38ff00" stroke="#055000" stroke-width="4" stroke-linecap="butt"/><path d="M401.5,135c0,14.91169 -12.08831,27 -27,27c-14.91169,0 -27,-12.08831 -27,-27c0,-14.91169 12.08831,-27 27,-27c14.91169,0 27,12.08831 27,27z" fill="#38ff00" stroke="#145d00" stroke-width="4" stroke-linecap="butt"/><path d="M442.5,171c0,19.32997 -15.67003,35 -35,35c-19.32997,0 -35,-15.67003 -35,-35c0,-19.32997 15.67003,-35 35,-35c19.32997,0 35,15.67003 35,35z" fill="#38ff00" stroke="#145d00" stroke-width="4" stroke-linecap="butt"/><path d="M336.5,151c0,-8.28427 6.71573,-15 15,-15c6.70161,0 12.37675,4.39484 14.30056,10.45964c1.18333,-0.30015 2.42276,-0.45964 3.69944,-0.45964c2.1341,0 4.16411,0.44567 6.00203,1.24902c-0.00135,-0.08284 -0.00203,-0.16585 -0.00203,-0.24902c0,-8.28427 6.71573,-15 15,-15c8.28427,0 15,6.71573 15,15c0,8.28427 -6.71573,15 -15,15c-2.1341,0 -4.16411,-0.44567 -6.00203,-1.24902c0.00135,0.08284 0.00203,0.16585 0.00203,0.24902c0,2.18103 -0.46549,4.25333 -1.30253,6.12299c4.37439,2.6205 7.30253,7.4068 7.30253,12.87701c0,8.28427 -6.71573,15 -15,15c-8.28427,0 -15,-6.71573 -15,-15c0,-2.18103 0.46549,-4.25333 1.30253,-6.12299c-3.10877,-1.86232 -5.4871,-4.81851 -6.60309,-8.33666c-1.18333,0.30015 -2.42276,0.45964 -3.69944,0.45964c-8.28427,0 -15,-6.71573 -15,-15z" fill="#38ff00" stroke="none" stroke-width="0.5" stroke-linecap="butt"/><path d="M359.5,158.5c0,5.79899 -4.25329,10.5 -9.5,10.5c-5.24671,0 -9.5,-4.70101 -9.5,-10.5c0,-5.79899 4.25329,-10.5 9.5,-10.5c5.24671,0 9.5,4.70101 9.5,10.5z" fill="#ff0000" stroke="#650000" stroke-width="4" stroke-linecap="butt"/><path d="M392.5,142.5c0,5.79899 -4.25329,10.5 -9.5,10.5c-5.24671,0 -9.5,-4.70101 -9.5,-10.5c0,-5.79899 4.25329,-10.5 9.5,-10.5c5.24671,0 9.5,4.70101 9.5,10.5z" fill="#ff0000" stroke="#5d0000" stroke-width="4" stroke-linecap="butt"/><path d="M418.5,178.5c0,5.79899 -4.25329,10.5 -9.5,10.5c-5.24671,0 -9.5,-4.70101 -9.5,-10.5c0,-5.79899 4.25329,-10.5 9.5,-10.5c5.24671,0 9.5,4.70101 9.5,10.5z" fill="#ff0000" stroke="#5d0000" stroke-width="4" stroke-linecap="butt"/><path d="M349.5,140v14" fill="none" stroke="#000000" stroke-width="4" stroke-linecap="round"/><path d="M382.5,126v14" fill="none" stroke="#000000" stroke-width="4" stroke-linecap="round"/><path d="M408.5,159v14" fill="none" stroke="#000000" stroke-width="4" stroke-linecap="round"/><path d="M204.5,308v-173h43v173z" fill="#981d00" stroke="#550000" stroke-width="4" stroke-linecap="butt"/><path d="M-4.5,367v-59h498v59z" fill="#6cff00" stroke="#41b700" stroke-width="3.5" stroke-linecap="butt"/><path d="M240.5,137.5c0,22.36753 -16.56546,40.5 -37,40.5c-20.43454,0 -37,-18.13247 -37,-40.5c0,-22.36753 16.56546,-40.5 37,-40.5c20.43454,0 37,18.13247 37,40.5z" fill="#38ff00" stroke="#055000" stroke-width="4" stroke-linecap="butt"/><path d="M304.38182,134.5c0,24.02439 -17.88215,43.5 -39.94091,43.5c-22.05876,0 -39.94091,-19.47561 -39.94091,-43.5c0,-24.02439 17.88215,-43.5 39.94091,-43.5c22.05876,0 39.94091,19.47561 39.94091,43.5z" fill="#38ff00" stroke="#055000" stroke-width="4" stroke-linecap="butt"/><path d="M257.5,93.5c0,18.50154 -12.98374,33.5 -29,33.5c-16.01626,0 -29,-14.99846 -29,-33.5c0,-18.50154 12.98374,-33.5 29,-33.5c16.01626,0 29,14.99846 29,33.5z" fill="#38ff00" stroke="#055000" stroke-width="4" stroke-linecap="butt"/><path d="M238.66228,162.98683c-9.48683,3.16228 -12.64911,-6.32456 -12.64911,-6.32456l-0.01968,-0.90497c-3.33965,-3.33965 -3.20841,-8.00278 -6.56456,-11.18624c0,0 -7.07107,-7.07107 0,-14.14214c0.39105,-0.39105 0.7821,-0.73885 1.17196,-1.04698c-0.48304,-0.33097 -0.97284,-0.64915 -1.4944,-0.8988c-1.58923,-0.76068 -3.14673,-1.48809 -4.66861,-2.2736c0.04089,0.25746 0.06213,0.52148 0.06213,0.79045c0,2.4193 -1.71825,4.43729 -4.00098,4.90018c0.00065,0.0332 0.00098,0.06647 0.00098,0.09982c0,2.76142 -2.23858,5 -5,5c-2.76142,0 -5,-2.23858 -5,-5c0,-1.17286 0.40383,-2.2514 1.08003,-3.10416c-0.05258,-0.29065 -0.08003,-0.59004 -0.08003,-0.89584c0,-2.76126 2.23831,-4.99974 4.99951,-5c0.47846,-0.35948 1.02352,-0.63511 1.61336,-0.80508c-1.28002,-1.0565 -2.02332,-2.75079 -3.45997,-3.5825c-1.47355,-0.85307 -3.08336,-1.44543 -4.62503,-2.16815c0,0 -8.94427,-4.47214 -4.47214,-13.41641c4.47214,-8.94427 13.41641,-4.47214 13.41641,-4.47214c2.45832,1.27728 5.05058,2.32453 7.37497,3.83185c1.75463,1.13784 2.85285,3.08129 4.49279,4.379c2.66338,2.10758 5.778,3.4612 8.55795,5.1625c0.1254,0.07675 -0.04457,-0.41972 0.10216,-0.42908c1.53143,-0.09765 3.08779,-0.12092 4.60182,0.12913c1.50964,0.24932 2.83272,0.65423 4.06835,1.17062c0.34171,-0.28945 0.69668,-0.5616 1.07252,-0.80625c0.88341,-0.57506 2.08362,-0.47907 3,-1c0.44394,-0.25237 0.4945,-0.94071 0.91742,-1.22691c0.39557,-0.26769 1.11211,0.04992 1.39282,-0.33652c0.43712,-0.60176 0.03703,-1.56259 0.44056,-2.18737c1.02305,-1.58396 3.20012,-2.29244 4,-4c0.99695,-2.12826 1.91763,-4.31114 3.18601,-6.28969l2.24944,-2.52407c0,0 7.07107,-7.07107 14.14214,0c7.07107,7.07107 0,14.14214 0,14.14214l0.24944,-0.52407c-1.24471,1.7186 -1.67038,3.92284 -2.81399,5.71031c-1.01622,1.58835 -3.11548,2.33471 -4,4c-0.64409,1.21263 -0.68574,2.75339 -1.55944,3.81263c-2.76454,3.3516 -6.983,5.61642 -10.68976,7.43657c-1.00832,0.49512 -1.14835,2.13487 -2.18624,2.56456c0,0 -2,2 -2,2c-1.78481,1.78481 -4.24117,2.89809 -6.95755,2.9283c0.26915,0.47134 0.55563,1.00087 0.86963,1.60712c0.8213,1.58571 0.50396,3.66997 1.52336,5.1362c0.53819,0.7741 1.33333,1.33333 2,2l1.98032,5.09503c0,0 3.16228,9.48683 -6.32456,12.64911z" fill="#38ff00" stroke="none" stroke-width="0.5" stroke-linecap="butt"/><path d="M212.5,144.5c0,6.07513 -4.92487,11 -11,11c-6.07513,0 -11,-4.92487 -11,-11c0,-6.07513 4.92487,-11 11,-11c6.07513,0 11,4.92487 11,11z" fill="#ff0000" stroke="#8c0000" stroke-width="4" stroke-linecap="butt"/><path d="M273.5,142.5c0,5.52285 -4.92487,10 -11,10c-6.07513,0 -11,-4.47715 -11,-10c0,-5.52285 4.92487,-10 11,-10c6.07513,0 11,4.47715 11,10z" fill="#ff0000" stroke="#8c0000" stroke-width="4" stroke-linecap="butt"/><path d="M242.5,104c0,5.24671 -4.47715,9.5 -10,9.5c-5.52285,0 -10,-4.25329 -10,-9.5c0,-5.24671 4.47715,-9.5 10,-9.5c5.52285,0 10,4.25329 10,9.5z" fill="#ff0000" stroke="#8c0000" stroke-width="4" stroke-linecap="butt"/><path d="M198.5,125.5l2,14" fill="none" stroke="#8c0000" stroke-width="4" stroke-linecap="round"/><path d="M261.5,123.5l1,14" fill="none" stroke="#8c0000" stroke-width="4" stroke-linecap="round"/><path d="M228.5,82.5l3,19" fill="none" stroke="#8c0000" stroke-width="4" stroke-linecap="round"/></g></g></svg>